<svg width="900" height="520" viewBox="0 0 900 520" fill="none" xmlns="http://www.w3.org/2000/svg" role="img" aria-labelledby="title desc">
  <title id="title">AI search console</title>
  <desc id="desc">A stylised AI search console with query routing, citations, and visibility metrics.</desc>
  <rect width="900" height="520" rx="20" fill="#F4F4EF"/>
  <rect x="1" y="1" width="898" height="518" rx="19" fill="none" stroke="#E5E5DF" stroke-width="2"/>
  <rect x="78" y="76" width="744" height="368" rx="20" fill="#FFFFFF" stroke="#0A0A0A" stroke-width="2"/>
  <rect x="110" y="112" width="680" height="58" rx="15" fill="#F4F4EF" stroke="#0A0A0A" stroke-width="1.5"/>
  <circle cx="142" cy="141" r="8" fill="#C6F500" stroke="#0A0A0A" stroke-width="1.5"/>
  <text x="166" y="148" fill="#54545b" font-family="Inter, Arial, sans-serif" font-size="18" font-weight="600">query: best UK GEO agency</text>
  <rect x="110" y="204" width="210" height="178" rx="18" fill="#FFFFFF" stroke="#E0E0D9" stroke-width="2"/>
  <rect x="346" y="204" width="210" height="178" rx="18" fill="#FFFFFF" stroke="#E0E0D9" stroke-width="2"/>
  <rect x="582" y="204" width="208" height="178" rx="18" fill="#FFFFFF" stroke="#0A0A0A" stroke-width="2"/>
  <path d="M146 256h138M146 288h116M146 320h86" stroke="#D4D4CC" stroke-width="8" stroke-linecap="round"/>
  <path d="M382 256h138M382 288h90M382 320h126" stroke="#D4D4CC" stroke-width="8" stroke-linecap="round"/>
  <path d="M618 256h136M618 288h104M618 320h62" stroke="#0A0A0A" stroke-width="8" stroke-linecap="round"/>
  <text x="146" y="235" fill="#0A0A0A" font-family="Inter, Arial, sans-serif" font-size="17" font-weight="800">retrieve</text>
  <text x="382" y="235" fill="#0A0A0A" font-family="Inter, Arial, sans-serif" font-size="17" font-weight="800">reason</text>
  <text x="618" y="235" fill="#0A0A0A" font-family="Inter, Arial, sans-serif" font-size="17" font-weight="800">cite</text>
  <rect x="606" y="196" width="184" height="16" rx="8" fill="#C6F500"/>
  <path d="M322 292h22M558 292h22" stroke="#9a9aa0" stroke-width="3" stroke-linecap="round"/>
  <circle cx="333" cy="292" r="5" fill="#0A0A0A"/>
  <circle cx="569" cy="292" r="5" fill="#C6F500" stroke="#0A0A0A" stroke-width="1.5"/>
</svg>
