<svg width="900" height="520" viewBox="0 0 900 520" fill="none" xmlns="http://www.w3.org/2000/svg" role="img" aria-labelledby="title desc">
  <title id="title">SEO system diagram</title>
  <desc id="desc">A minimal technical SEO diagram showing crawl paths, ranking layers, and search signals.</desc>
  <rect width="900" height="520" rx="28" fill="#07070B"/>
  <path d="M90 115h720M90 210h720M90 305h720M90 400h720" stroke="#1C1C2B" stroke-width="2"/>
  <path d="M180 70v380M330 70v380M480 70v380M630 70v380M780 70v380" stroke="#151523" stroke-width="2"/>
  <rect x="96" y="86" width="184" height="72" rx="16" fill="#0F111B" stroke="#2D6CFF" stroke-opacity=".55"/>
  <rect x="358" y="224" width="184" height="72" rx="16" fill="#0F111B" stroke="#F0F0F0" stroke-opacity=".24"/>
  <rect x="620" y="348" width="184" height="72" rx="16" fill="#0F111B" stroke="#FF5C1A" stroke-opacity=".55"/>
  <path d="M280 122c66 0 18 138 78 138M542 260c58 0 20 124 78 124" stroke="#2D6CFF" stroke-width="3" stroke-linecap="round"/>
  <circle cx="188" cy="122" r="12" fill="#2D6CFF"/>
  <circle cx="450" cy="260" r="12" fill="#F0F0F0"/>
  <circle cx="712" cy="384" r="12" fill="#FF5C1A"/>
  <text x="126" y="130" fill="#F0F0F0" font-family="Inter, Arial, sans-serif" font-size="22" font-weight="700">crawl</text>
  <text x="388" y="268" fill="#F0F0F0" font-family="Inter, Arial, sans-serif" font-size="22" font-weight="700">intent</text>
  <text x="650" y="392" fill="#F0F0F0" font-family="Inter, Arial, sans-serif" font-size="22" font-weight="700">rank</text>
  <path d="M113 455h674" stroke="#8A8A9A" stroke-opacity=".22" stroke-width="10" stroke-linecap="round"/>
  <path d="M113 455h448" stroke="#2D6CFF" stroke-width="10" stroke-linecap="round"/>
  <path d="M564 455h122" stroke="#FF5C1A" stroke-width="10" stroke-linecap="round"/>
</svg>
