<svg width="900" height="520" viewBox="0 0 900 520" fill="none" xmlns="http://www.w3.org/2000/svg" role="img" aria-labelledby="title desc">
  <title id="title">Content architecture map</title>
  <desc id="desc">A minimal architecture diagram showing hub pages, supporting pages, and internal links.</desc>
  <rect width="900" height="520" rx="28" fill="#07070B"/>
  <path d="M160 132h580M160 260h580M160 388h580" stroke="#1C1C2B" stroke-width="2"/>
  <path d="M450 110v300M260 260h380M330 132l120 128M570 132 450 260M330 388l120-128M570 388 450 260" stroke="#2D6CFF" stroke-opacity=".55" stroke-width="3" stroke-linecap="round"/>
  <rect x="344" y="204" width="212" height="112" rx="24" fill="#10121D" stroke="#F0F0F0" stroke-opacity=".24"/>
  <text x="396" y="254" fill="#F0F0F0" font-family="Inter, Arial, sans-serif" font-size="22" font-weight="800">HUB</text>
  <text x="378" y="284" fill="#8A8A9A" font-family="Inter, Arial, sans-serif" font-size="15" font-weight="600">primary entity page</text>
  <g fill="#0F111B" stroke="#1C1C2B">
    <rect x="220" y="92" width="156" height="80" rx="18"/>
    <rect x="524" y="92" width="156" height="80" rx="18"/>
    <rect x="220" y="348" width="156" height="80" rx="18"/>
    <rect x="524" y="348" width="156" height="80" rx="18"/>
  </g>
  <text x="260" y="140" fill="#F0F0F0" font-family="Inter, Arial, sans-serif" font-size="18" font-weight="700">guide</text>
  <text x="555" y="140" fill="#F0F0F0" font-family="Inter, Arial, sans-serif" font-size="18" font-weight="700">FAQ</text>
  <text x="250" y="396" fill="#F0F0F0" font-family="Inter, Arial, sans-serif" font-size="18" font-weight="700">proof</text>
  <text x="552" y="396" fill="#F0F0F0" font-family="Inter, Arial, sans-serif" font-size="18" font-weight="700">service</text>
  <circle cx="450" cy="260" r="7" fill="#FF5C1A"/>
</svg>
