<svg width="900" height="520" viewBox="0 0 900 520" fill="none" xmlns="http://www.w3.org/2000/svg" role="img" aria-labelledby="title desc">
  <title id="title">Healthcare GEO search ecosystem</title>
  <desc id="desc">A healthcare GEO visibility map showing a clinic entity connected to Google, AI Overviews, ChatGPT, Perplexity, Gemini, Copilot, and local patient searches.</desc>
  <defs>
    <filter id="shadow" x="-20%" y="-25%" width="140%" height="150%" color-interpolation-filters="sRGB">
      <feDropShadow dx="0" dy="18" stdDeviation="18" flood-color="#0A0A0A" flood-opacity=".12"/>
    </filter>
  </defs>

  <rect width="900" height="520" rx="26" fill="#F6F4EF"/>
  <rect x="1" y="1" width="898" height="518" rx="25" stroke="#D9D6CE" stroke-width="1.4"/>
  <g opacity=".78">
    <path d="M82 70H818M82 188H818M82 306H818M82 424H818" stroke="#D9D6CE" stroke-width="1" stroke-dasharray="3 5"/>
    <path d="M138 52V456M348 52V456M558 52V456M768 52V456" stroke="#D9D6CE" stroke-width="1" stroke-dasharray="3 5"/>
    <circle cx="138" cy="188" r="4.8" fill="#F6F4EF" stroke="#D9D6CE"/>
    <circle cx="768" cy="424" r="4.8" fill="#F6F4EF" stroke="#D9D6CE"/>
  </g>

  <g stroke="#171717" stroke-width="3.6" stroke-linecap="round" opacity=".94">
    <path d="M450 258C410 178 326 112 222 112"/>
    <path d="M450 258C450 178 450 108 450 82"/>
    <path d="M450 258C496 176 586 112 688 112"/>
    <path d="M450 258C366 244 284 232 190 232"/>
    <path d="M450 258C536 244 618 232 710 232"/>
    <path d="M450 258C406 330 322 394 222 394"/>
    <path d="M450 258C450 338 450 400 450 426"/>
    <path d="M450 258C496 332 586 394 688 394"/>
  </g>

  <g filter="url(#shadow)" font-family="Inter, Arial, sans-serif">
    <g>
      <rect x="134" y="76" width="176" height="72" rx="36" fill="#FFFFFF" stroke="#171717" stroke-width="2"/>
      <circle cx="170" cy="112" r="22" fill="#EAF9A7"/>
      <text x="222" y="120" fill="#171717" font-size="21" font-weight="850" text-anchor="middle">Google</text>
    </g>
    <g>
      <rect x="374" y="46" width="152" height="72" rx="36" fill="#FFFFFF" stroke="#171717" stroke-width="2"/>
      <circle cx="410" cy="82" r="22" fill="#EAF9A7"/>
      <text x="474" y="90" fill="#171717" font-size="20" font-weight="850" text-anchor="middle">AI Overview</text>
    </g>
    <g>
      <rect x="610" y="76" width="178" height="72" rx="36" fill="#FFFFFF" stroke="#171717" stroke-width="2"/>
      <circle cx="646" cy="112" r="22" fill="#EAF9A7"/>
      <text x="704" y="120" fill="#171717" font-size="21" font-weight="850" text-anchor="middle">ChatGPT</text>
    </g>

    <g>
      <rect x="86" y="196" width="204" height="72" rx="36" fill="#FFFFFF" stroke="#171717" stroke-width="2"/>
      <circle cx="124" cy="232" r="22" fill="#EAF9A7"/>
      <text x="196" y="240" fill="#171717" font-size="21" font-weight="850" text-anchor="middle">Perplexity</text>
    </g>
    <g>
      <rect x="610" y="196" width="206" height="72" rx="36" fill="#FFFFFF" stroke="#171717" stroke-width="2"/>
      <circle cx="648" cy="232" r="22" fill="#EAF9A7"/>
      <text x="724" y="240" fill="#171717" font-size="21" font-weight="850" text-anchor="middle">Copilot</text>
    </g>

    <g>
      <rect x="132" y="358" width="180" height="72" rx="36" fill="#FFFFFF" stroke="#171717" stroke-width="2"/>
      <circle cx="170" cy="394" r="22" fill="#EAF9A7"/>
      <text x="228" y="402" fill="#171717" font-size="21" font-weight="850" text-anchor="middle">Gemini</text>
    </g>
    <g>
      <rect x="374" y="390" width="152" height="72" rx="36" fill="#FFFFFF" stroke="#171717" stroke-width="2"/>
      <circle cx="410" cy="426" r="22" fill="#EAF9A7"/>
      <text x="474" y="434" fill="#171717" font-size="19" font-weight="850" text-anchor="middle">Local Pack</text>
    </g>
    <g>
      <rect x="610" y="358" width="178" height="72" rx="36" fill="#FFFFFF" stroke="#171717" stroke-width="2"/>
      <circle cx="646" cy="394" r="22" fill="#EAF9A7"/>
      <text x="704" y="402" fill="#171717" font-size="18" font-weight="850" text-anchor="middle">Care searches</text>
    </g>
  </g>

  <g filter="url(#shadow)" font-family="Inter, Arial, sans-serif">
    <circle cx="450" cy="258" r="78" fill="#C6F500" stroke="#171717" stroke-width="3"/>
    <circle cx="450" cy="258" r="46" fill="#171717"/>
    <text x="450" y="250" fill="#C6F500" font-size="16" font-weight="900" text-anchor="middle">CLINIC</text>
    <text x="450" y="273" fill="#FFFFFF" font-size="16" font-weight="900" text-anchor="middle">ENTITY</text>
  </g>

  <g>
    <circle cx="310" cy="112" r="8.5" fill="#F6F4EF" stroke="#171717" stroke-width="3"/>
    <circle cx="310" cy="112" r="4.5" fill="#C6F500"/>
    <circle cx="450" cy="118" r="8.5" fill="#F6F4EF" stroke="#171717" stroke-width="3"/>
    <circle cx="450" cy="118" r="4.5" fill="#C6F500"/>
    <circle cx="610" cy="112" r="8.5" fill="#F6F4EF" stroke="#171717" stroke-width="3"/>
    <circle cx="610" cy="112" r="4.5" fill="#C6F500"/>
    <circle cx="290" cy="232" r="8.5" fill="#F6F4EF" stroke="#171717" stroke-width="3"/>
    <circle cx="290" cy="232" r="4.5" fill="#C6F500"/>
    <circle cx="610" cy="232" r="8.5" fill="#F6F4EF" stroke="#171717" stroke-width="3"/>
    <circle cx="610" cy="232" r="4.5" fill="#C6F500"/>
    <circle cx="312" cy="394" r="8.5" fill="#F6F4EF" stroke="#171717" stroke-width="3"/>
    <circle cx="312" cy="394" r="4.5" fill="#C6F500"/>
    <circle cx="450" cy="390" r="8.5" fill="#F6F4EF" stroke="#171717" stroke-width="3"/>
    <circle cx="450" cy="390" r="4.5" fill="#C6F500"/>
    <circle cx="610" cy="394" r="8.5" fill="#F6F4EF" stroke="#171717" stroke-width="3"/>
    <circle cx="610" cy="394" r="4.5" fill="#C6F500"/>
  </g>

  <g filter="url(#shadow)" font-family="Inter, Arial, sans-serif">
    <rect x="284" y="468" width="332" height="34" rx="17" fill="#FFFFFF" stroke="#171717" stroke-width="1.7"/>
    <text x="450" y="491" fill="#54545B" font-size="13" font-weight="850" text-anchor="middle">schema + services + clinician proof</text>
  </g>
</svg>
