<svg width="900" height="520" viewBox="0 0 900 520" fill="none" xmlns="http://www.w3.org/2000/svg" role="img" aria-labelledby="title desc">
  <title id="title">AI search console</title>
  <desc id="desc">A stylised AI search console with query routing, citations, and visibility metrics.</desc>
  <rect width="900" height="520" rx="28" fill="#07070B"/>
  <rect x="78" y="76" width="744" height="368" rx="24" fill="#0D101A" stroke="#1C1C2B"/>
  <rect x="110" y="112" width="680" height="58" rx="15" fill="#050508" stroke="#2D6CFF" stroke-opacity=".55"/>
  <circle cx="142" cy="141" r="8" fill="#2D6CFF"/>
  <text x="166" y="148" fill="#8A8A9A" font-family="Inter, Arial, sans-serif" font-size="18" font-weight="600">query: best UK GEO agency</text>
  <rect x="110" y="204" width="210" height="178" rx="20" fill="#0F111B" stroke="#1C1C2B"/>
  <rect x="346" y="204" width="210" height="178" rx="20" fill="#0F111B" stroke="#1C1C2B"/>
  <rect x="582" y="204" width="208" height="178" rx="20" fill="#0F111B" stroke="#1C1C2B"/>
  <path d="M146 256h138M146 288h116M146 320h86" stroke="#2D6CFF" stroke-width="8" stroke-linecap="round"/>
  <path d="M382 256h138M382 288h90M382 320h126" stroke="#F0F0F0" stroke-opacity=".42" stroke-width="8" stroke-linecap="round"/>
  <path d="M618 256h136M618 288h104M618 320h62" stroke="#FF5C1A" stroke-width="8" stroke-linecap="round"/>
  <text x="146" y="235" fill="#F0F0F0" font-family="Inter, Arial, sans-serif" font-size="17" font-weight="800">retrieve</text>
  <text x="382" y="235" fill="#F0F0F0" font-family="Inter, Arial, sans-serif" font-size="17" font-weight="800">reason</text>
  <text x="618" y="235" fill="#F0F0F0" font-family="Inter, Arial, sans-serif" font-size="17" font-weight="800">cite</text>
  <path d="M322 292h22M558 292h22" stroke="#8A8A9A" stroke-width="3" stroke-linecap="round"/>
  <circle cx="333" cy="292" r="5" fill="#2D6CFF"/>
  <circle cx="569" cy="292" r="5" fill="#FF5C1A"/>
</svg>
