<svg width="900" height="520" viewBox="0 0 900 520" fill="none" xmlns="http://www.w3.org/2000/svg" role="img" aria-labelledby="title desc">
  <title id="title">Healthcare content architecture map</title>
  <desc id="desc">A healthcare SEO content architecture diagram showing a clinic hub connected to condition guides, patient FAQs, clinician proof, and treatment service pages.</desc>
  <defs>
    <filter id="shadow" x="-20%" y="-25%" width="140%" height="150%" color-interpolation-filters="sRGB">
      <feDropShadow dx="0" dy="18" stdDeviation="18" flood-color="#0A0A0A" flood-opacity=".12"/>
    </filter>
  </defs>

  <rect width="900" height="520" rx="26" fill="#F6F4EF"/>
  <rect x="1" y="1" width="898" height="518" rx="25" stroke="#D9D6CE" stroke-width="1.4"/>
  <g opacity=".78">
    <path d="M82 70H818M82 188H818M82 306H818M82 424H818" stroke="#D9D6CE" stroke-width="1" stroke-dasharray="3 5"/>
    <path d="M138 52V456M348 52V456M558 52V456M768 52V456" stroke="#D9D6CE" stroke-width="1" stroke-dasharray="3 5"/>
    <circle cx="138" cy="188" r="4.8" fill="#F6F4EF" stroke="#D9D6CE"/>
    <circle cx="768" cy="424" r="4.8" fill="#F6F4EF" stroke="#D9D6CE"/>
  </g>

  <path d="M315 150H398C428 150 446 168 446 198V218" stroke="#171717" stroke-width="4" stroke-linecap="round"/>
  <path d="M585 150H502C472 150 454 168 454 198V218" stroke="#171717" stroke-width="4" stroke-linecap="round"/>
  <path d="M315 370H398C428 370 446 352 446 322V302" stroke="#171717" stroke-width="4" stroke-linecap="round"/>
  <path d="M585 370H502C472 370 454 352 454 322V302" stroke="#171717" stroke-width="4" stroke-linecap="round"/>

  <g filter="url(#shadow)">
    <rect x="190" y="102" width="156" height="96" rx="18" fill="#FFFFFF" stroke="#171717" stroke-width="2"/>
    <circle cx="232" cy="150" r="26" fill="#EAF9A7"/>
    <path d="M220 150H244M220 140H250M220 160H238" stroke="#171717" stroke-width="3" stroke-linecap="round"/>
    <text x="276" y="143" fill="#171717" font-family="Inter, Arial, sans-serif" font-size="21" font-weight="850">condition</text>
    <text x="276" y="168" fill="#54545B" font-family="Inter, Arial, sans-serif" font-size="15" font-weight="800">guide</text>
  </g>

  <g filter="url(#shadow)">
    <rect x="554" y="102" width="156" height="96" rx="18" fill="#FFFFFF" stroke="#171717" stroke-width="2"/>
    <circle cx="596" cy="150" r="26" fill="#EAF9A7"/>
    <path d="M588 140C591 136 598 136 602 140C607 146 602 151 596 154V160" stroke="#171717" stroke-width="3" stroke-linecap="round"/>
    <circle cx="596" cy="168" r="2.8" fill="#171717"/>
    <text x="640" y="143" fill="#171717" font-family="Inter, Arial, sans-serif" font-size="21" font-weight="850">patient</text>
    <text x="640" y="168" fill="#54545B" font-family="Inter, Arial, sans-serif" font-size="15" font-weight="800">FAQ</text>
  </g>

  <g filter="url(#shadow)">
    <rect x="332" y="210" width="236" height="108" rx="20" fill="#171717"/>
    <circle cx="382" cy="264" r="29" fill="#C6F500"/>
    <path d="M369 264H395M382 251V277" stroke="#171717" stroke-width="4" stroke-linecap="round"/>
    <path d="M423 237V291" stroke="#424242" stroke-width="1.4"/>
    <text x="496" y="259" fill="#C6F500" font-family="Inter, Arial, sans-serif" font-size="24" font-weight="900" text-anchor="middle">CLINIC HUB</text>
    <text x="496" y="285" fill="#D7D7CF" font-family="Inter, Arial, sans-serif" font-size="12" font-weight="700" text-anchor="middle">service area entity</text>
  </g>

  <g filter="url(#shadow)">
    <rect x="190" y="322" width="156" height="96" rx="18" fill="#FFFFFF" stroke="#171717" stroke-width="2"/>
    <circle cx="232" cy="370" r="26" fill="#EAF9A7"/>
    <path d="M220 378L230 360L240 370L249 354" stroke="#171717" stroke-width="3" stroke-linecap="round" stroke-linejoin="round"/>
    <text x="276" y="363" fill="#171717" font-family="Inter, Arial, sans-serif" font-size="21" font-weight="850">doctor</text>
    <text x="276" y="388" fill="#54545B" font-family="Inter, Arial, sans-serif" font-size="15" font-weight="800">proof</text>
  </g>

  <g filter="url(#shadow)">
    <rect x="554" y="322" width="156" height="96" rx="18" fill="#C6F500" stroke="#171717" stroke-width="2"/>
    <circle cx="596" cy="370" r="26" fill="#171717"/>
    <path d="M586 382V358H606V382M586 370H606" stroke="#C6F500" stroke-width="3" stroke-linecap="round" stroke-linejoin="round"/>
    <text x="638" y="363" fill="#171717" font-family="Inter, Arial, sans-serif" font-size="21" font-weight="850">treatment</text>
    <text x="638" y="388" fill="#171717" font-family="Inter, Arial, sans-serif" font-size="15" font-weight="850">pages</text>
  </g>

  <circle cx="346" cy="150" r="9" fill="#F6F4EF" stroke="#171717" stroke-width="3"/>
  <circle cx="346" cy="150" r="5" fill="#C6F500"/>
  <circle cx="554" cy="150" r="9" fill="#F6F4EF" stroke="#171717" stroke-width="3"/>
  <circle cx="554" cy="150" r="5" fill="#C6F500"/>
  <circle cx="346" cy="370" r="9" fill="#F6F4EF" stroke="#171717" stroke-width="3"/>
  <circle cx="346" cy="370" r="5" fill="#C6F500"/>
  <circle cx="554" cy="370" r="9" fill="#F6F4EF" stroke="#171717" stroke-width="3"/>
  <circle cx="554" cy="370" r="5" fill="#C6F500"/>

  <path d="M116 464H680" stroke="#171717" stroke-width="5" stroke-linecap="round"/>
  <path d="M680 464H786" stroke="#C6F500" stroke-width="5" stroke-linecap="round"/>
</svg>
