<svg width="900" height="520" viewBox="0 0 900 520" fill="none" xmlns="http://www.w3.org/2000/svg" role="img" aria-labelledby="title desc">
  <title id="title">AI search console</title>
  <desc id="desc">A stylised AI search console with query routing, citations, and visibility metrics.</desc>
  <rect width="900" height="520" rx="20" fill="#F7F7F5"/>
  <rect x="1" y="1" width="898" height="518" rx="19" fill="none" stroke="#E6E6E0" stroke-width="2"/>
  <rect x="78" y="76" width="744" height="368" rx="20" fill="#FFFFFF" stroke="#E6E6E0" stroke-width="2"/>
  <rect x="110" y="112" width="680" height="58" rx="15" fill="#F7F7F5" stroke="#E6E6E0" stroke-width="2"/>
  <circle cx="142" cy="141" r="8" fill="#FF5C1A"/>
  <text x="166" y="148" fill="#6a6a72" font-family="Inter, Arial, sans-serif" font-size="18" font-weight="600">query: best UK GEO agency</text>
  <rect x="110" y="204" width="210" height="178" rx="18" fill="#F7F7F5" stroke="#E6E6E0" stroke-width="2"/>
  <rect x="346" y="204" width="210" height="178" rx="18" fill="#F7F7F5" stroke="#E6E6E0" stroke-width="2"/>
  <rect x="582" y="204" width="208" height="178" rx="18" fill="#F7F7F5" stroke="#E6E6E0" stroke-width="2"/>
  <path d="M146 256h138M146 288h116M146 320h86" stroke="#D8D8D1" stroke-width="8" stroke-linecap="round"/>
  <path d="M382 256h138M382 288h90M382 320h126" stroke="#D8D8D1" stroke-width="8" stroke-linecap="round"/>
  <path d="M618 256h136M618 288h104M618 320h62" stroke="#FF5C1A" stroke-width="8" stroke-linecap="round"/>
  <text x="146" y="235" fill="#0A0A0A" font-family="Inter, Arial, sans-serif" font-size="17" font-weight="800">retrieve</text>
  <text x="382" y="235" fill="#0A0A0A" font-family="Inter, Arial, sans-serif" font-size="17" font-weight="800">reason</text>
  <text x="618" y="235" fill="#0A0A0A" font-family="Inter, Arial, sans-serif" font-size="17" font-weight="800">cite</text>
  <path d="M322 292h22M558 292h22" stroke="#C8C8C1" stroke-width="3" stroke-linecap="round"/>
  <circle cx="333" cy="292" r="5" fill="#1A1AFF"/>
  <circle cx="569" cy="292" r="5" fill="#FF5C1A"/>
</svg>
