<svg width="900" height="520" viewBox="0 0 900 520" fill="none" xmlns="http://www.w3.org/2000/svg" role="img" aria-labelledby="title desc">
  <title id="title">SEO system diagram</title>
  <desc id="desc">A minimal technical SEO diagram showing crawl paths, ranking layers, and search signals.</desc>
  <rect width="900" height="520" rx="20" fill="#F7F7F5"/>
  <rect x="1" y="1" width="898" height="518" rx="19" fill="none" stroke="#E6E6E0" stroke-width="2"/>
  <path d="M90 115h720M90 210h720M90 305h720M90 400h720" stroke="#ECECE6" stroke-width="2"/>
  <path d="M180 70v380M330 70v380M480 70v380M630 70v380M780 70v380" stroke="#ECECE6" stroke-width="2"/>
  <path d="M280 122c66 0 18 138 78 138M542 260c58 0 20 124 78 124" stroke="#FF5C1A" stroke-width="3" stroke-linecap="round"/>
  <rect x="96" y="86" width="184" height="72" rx="16" fill="#FFFFFF" stroke="#E6E6E0" stroke-width="2"/>
  <rect x="358" y="224" width="184" height="72" rx="16" fill="#FFFFFF" stroke="#E6E6E0" stroke-width="2"/>
  <rect x="620" y="348" width="184" height="72" rx="16" fill="#FFFFFF" stroke="#E6E6E0" stroke-width="2"/>
  <circle cx="188" cy="122" r="11" fill="#1A1AFF"/>
  <circle cx="450" cy="260" r="11" fill="#0A0A0A"/>
  <circle cx="712" cy="384" r="11" fill="#FF5C1A"/>
  <text x="214" y="130" fill="#0A0A0A" font-family="Inter, Arial, sans-serif" font-size="22" font-weight="700">crawl</text>
  <text x="476" y="268" fill="#0A0A0A" font-family="Inter, Arial, sans-serif" font-size="22" font-weight="700">intent</text>
  <text x="738" y="392" fill="#0A0A0A" font-family="Inter, Arial, sans-serif" font-size="22" font-weight="700">rank</text>
  <path d="M113 455h674" stroke="#E0E0DA" stroke-width="10" stroke-linecap="round"/>
  <path d="M113 455h448" stroke="#0A0A0A" stroke-width="10" stroke-linecap="round"/>
  <path d="M564 455h122" stroke="#FF5C1A" stroke-width="10" stroke-linecap="round"/>
</svg>
