<?xml version="1.0" encoding="UTF-8" standalone="no"?><!DOCTYPE svg PUBLIC "-//W3C//DTD SVG 1.1//EN" "http://www.w3.org/Graphics/SVG/1.1/DTD/svg11.dtd"><svg width="100%" height="100%" viewBox="0 0 1672 941" version="1.1" xmlns="http://www.w3.org/2000/svg" xmlns:xlink="http://www.w3.org/1999/xlink" xml:space="preserve" xmlns:serif="http://www.serif.com/" style="fill-rule:evenodd;clip-rule:evenodd;stroke-linecap:round;stroke-linejoin:round;"><ellipse cx="835" cy="477.821" rx="520" ry="310" style="fill:#eaf5ff;fill-opacity:0.55;"/><ellipse cx="835" cy="794" rx="292" ry="28" style="fill:#afc8ef;fill-opacity:0.18;"/><g><path d="M315,228l0,49c0,15.454 -12.546,28 -28,28l-76,0c-15.454,0 -28,-12.546 -28,-28l0,-49c0,-15.454 12.546,-28 28,-28l76,0c15.454,0 28,12.546 28,28Z" style="fill:url(#_Linear1);"/><path d="M315,365l0,49c0,15.454 -12.546,28 -28,28l-76,0c-15.454,0 -28,-12.546 -28,-28l0,-49c0,-15.454 12.546,-28 28,-28l76,0c15.454,0 28,12.546 28,28Z" style="fill:url(#_Linear2);"/><path d="M315,502l0,49c0,15.454 -12.546,28 -28,28l-76,0c-15.454,0 -28,-12.546 -28,-28l0,-49c0,-15.454 12.546,-28 28,-28l76,0c15.454,0 28,12.546 28,28Z" style="fill:url(#_Linear3);"/><path d="M315,639l0,49c0,15.454 -12.546,28 -28,28l-76,0c-15.454,0 -28,-12.546 -28,-28l0,-49c0,-15.454 12.546,-28 28,-28l76,0c15.454,0 28,12.546 28,28Z" style="fill:url(#_Linear4);"/></g><g><circle cx="249" cy="252.5" r="17.853" style="fill:none;stroke:#fff;stroke-width:9.74px;"/><path d="M249,219.229l0,10.549m0,45.444l0,10.549m-33.271,-33.271l10.549,0m45.444,0l10.549,0m-56.805,-23.533l7.303,7.303m32.46,32.46l7.303,7.303m0,-47.067l-7.303,7.303m-32.46,32.46l-7.303,7.303" style="fill:none;fill-rule:nonzero;stroke:#fff;stroke-width:9.74px;"/></g><g><path d="M293,375l0,31c0,6.623 -5.377,12 -12,12l-64,0c-6.623,0 -12,-5.377 -12,-12l0,-31c0,-6.623 5.377,-12 12,-12l64,0c6.623,0 12,5.377 12,12Z" style="fill:#fff;fill-opacity:0.95;"/><circle cx="232" cy="387" r="10" style="fill:#39b9cc;"/><path d="M217,408c4,-13 26,-13 30,0" style="fill:#39b9cc;fill-rule:nonzero;"/><path d="M277,382c0,1.656 -1.344,3 -3,3l-14,0c-1.656,0 -3,-1.344 -3,-3c0,-1.656 1.344,-3 3,-3l14,0c1.656,0 3,1.344 3,3Z" style="fill:#bfe4ee;"/><path d="M285,396c0,1.656 -1.344,3 -3,3l-22,0c-1.656,0 -3,-1.344 -3,-3c0,-1.656 1.344,-3 3,-3l22,0c1.656,0 3,1.344 3,3Z" style="fill:#bfe4ee;"/></g><g><path d="M249,493.799c12.392,9.638 24.096,9.638 33.046,10.327c-1.377,32.357 -15.146,46.126 -33.046,55.076c-17.9,-8.95 -31.669,-22.719 -33.046,-55.076c8.95,-0.688 20.653,-0.688 33.046,-10.327Z" style="fill:none;fill-rule:nonzero;stroke:#fff;stroke-width:7.57px;stroke-linecap:butt;"/><path d="M236.949,527.81l7.86,8.384l16.243,-19.387" style="fill:none;fill-rule:nonzero;stroke:#fff;stroke-width:6.29px;"/></g><g><path d="M250.946,650.211l11.572,-9.735c9.53,-8.017 22.129,6.958 12.599,14.976l-12.879,10.254" style="fill:none;fill-rule:nonzero;stroke:#fff;stroke-width:8.81px;"/><path d="M247.054,676.789l-11.572,9.735c-9.53,8.017 -22.129,-6.958 -12.599,-14.976l12.879,-10.254" style="fill:none;fill-rule:nonzero;stroke:#fff;stroke-width:8.81px;"/><path d="M239.749,670.79l18.666,-14.848" style="fill:none;fill-rule:nonzero;stroke:#fff;stroke-width:4.4px;"/></g><path d="M322.264,256.213c105,-2 135,58 205,80" style="fill:none;fill-rule:nonzero;stroke:#6b9dff;stroke-width:8px;stroke-linejoin:miter;"/><path d="M324.879,394.794c115,2 140,28 205,37" style="fill:none;fill-rule:nonzero;stroke:#3dccbe;stroke-width:8px;stroke-linejoin:miter;"/><path d="M322.264,528.324c105,2 140,-13 205,-21" style="fill:none;fill-rule:nonzero;stroke:#9a70f4;stroke-width:8px;stroke-linejoin:miter;"/><path d="M324.879,663.855c115,2 140,-47 205,-70" style="fill:none;fill-rule:nonzero;stroke:#ffad4b;stroke-width:8px;stroke-linejoin:miter;"/><g><path d="M1092,270l0,360c0,20.973 -17.027,38 -38,38l-468,0c-20.973,0 -38,-17.027 -38,-38l0,-360c0,-20.973 17.027,-38 38,-38l468,0c20.973,0 38,17.027 38,38Z" style="fill:#def;"/><path d="M1070,281l0,329c0,16.557 -13.443,30 -30,30l-440,0c-16.557,0 -30,-13.443 -30,-30l0,-329c0,-16.557 13.443,-30 30,-30l440,0c16.557,0 30,13.443 30,30Z" style="fill:url(#_Linear5);stroke:#c7dbf8;stroke-width:3px;stroke-linecap:butt;stroke-linejoin:miter;"/><path d="M570,302l500,0" style="fill:none;fill-rule:nonzero;stroke:#d2e2f8;stroke-width:3px;stroke-linecap:butt;stroke-linejoin:miter;"/><circle cx="599" cy="278" r="7" style="fill:#b3ccef;"/><circle cx="624" cy="278" r="7" style="fill:#b3ccef;"/><circle cx="649" cy="278" r="7" style="fill:#b3ccef;"/><path d="M744,668l152,0l24,75l-200,0l24,-75Z" style="fill:#d7e8ff;fill-rule:nonzero;"/><path d="M955,739c0,4.967 -4.033,9 -9,9l-252,0c-4.967,0 -9,-4.033 -9,-9c0,-4.967 4.033,-9 9,-9l252,0c4.967,0 9,4.033 9,9Z" style="fill:#c9ddf8;"/></g><g><circle cx="639.805" cy="379" r="47" style="fill:url(#_Linear6);"/><path d="M1044,365l0,89c0,13.798 -11.202,25 -25,25l-118,0c-13.798,0 -25,-11.202 -25,-25l0,-89c0,-13.798 11.202,-25 25,-25l118,0c13.798,0 25,11.202 25,25Z" style="fill:#fff;stroke:#d8e6fa;stroke-width:2px;stroke-linecap:butt;stroke-linejoin:miter;"/><path d="M902,388c3,-39 48,-43 54,-8c14,-29 62,-21 63,20c1,40 -49,57 -63,63c-15,-7 -56,-29 -54,-75Z" style="fill:url(#_Linear7);fill-rule:nonzero;"/></g><path d="M618.805,379l42,0m-21,-21l0,42" style="fill:none;fill-rule:nonzero;stroke:#fff;stroke-width:15px;stroke-linejoin:miter;"/><path d="M913,403l28,0l12,-24l16,54l13,-30l28,0" style="fill:none;fill-rule:nonzero;stroke:#fff;stroke-width:7px;"/><path d="M820,379c0,4.967 -4.033,9 -9,9l-94,0c-4.967,0 -9,-4.033 -9,-9c0,-4.967 4.033,-9 9,-9l94,0c4.967,0 9,4.033 9,9Z" style="fill:#ceddf2;"/><path d="M847,433c0,4.967 -4.033,9 -9,9l-121,0c-4.967,0 -9,-4.033 -9,-9c0,-4.967 4.033,-9 9,-9l121,0c4.967,0 9,4.033 9,9Z" style="fill:#d9e6f6;"/><g><path d="M736,509l0,97c0,11.038 -8.962,20 -20,20l-92,0c-11.038,0 -20,-8.962 -20,-20l0,-97c0,-11.038 8.962,-20 20,-20l92,0c11.038,0 20,8.962 20,20Z" style="fill:#fff;stroke:#d8e6fa;stroke-width:2px;stroke-linecap:butt;stroke-linejoin:miter;"/><path d="M886,509l0,97c0,11.038 -8.962,20 -20,20l-92,0c-11.038,0 -20,-8.962 -20,-20l0,-97c0,-11.038 8.962,-20 20,-20l92,0c11.038,0 20,8.962 20,20Z" style="fill:#fff;stroke:#d8e6fa;stroke-width:2px;stroke-linecap:butt;stroke-linejoin:miter;"/><path d="M1036,509l0,97c0,11.038 -8.962,20 -20,20l-92,0c-11.038,0 -20,-8.962 -20,-20l0,-97c0,-11.038 8.962,-20 20,-20l92,0c11.038,0 20,8.962 20,20Z" style="fill:#fff;stroke:#d8e6fa;stroke-width:2px;stroke-linecap:butt;stroke-linejoin:miter;"/><circle cx="670" cy="538" r="27" style="fill:url(#_Linear8);"/><circle cx="820" cy="538" r="27" style="fill:url(#_Linear9);"/><circle cx="970" cy="538" r="27" style="fill:url(#_Linear10);"/><path d="M712,583c0,2.76 -2.24,5 -5,5l-74,0c-2.76,0 -5,-2.24 -5,-5c0,-2.76 2.24,-5 5,-5l74,0c2.76,0 5,2.24 5,5Z" style="fill:#d3e1f4;"/><path d="M696,603c0,2.76 -2.24,5 -5,5l-58,0c-2.76,0 -5,-2.24 -5,-5c0,-2.76 2.24,-5 5,-5l58,0c2.76,0 5,2.24 5,5Z" style="fill:#d3e1f4;"/><path d="M862,583c0,2.76 -2.24,5 -5,5l-74,0c-2.76,0 -5,-2.24 -5,-5c0,-2.76 2.24,-5 5,-5l74,0c2.76,0 5,2.24 5,5Z" style="fill:#d3e1f4;"/><path d="M846,603c0,2.76 -2.24,5 -5,5l-58,0c-2.76,0 -5,-2.24 -5,-5c0,-2.76 2.24,-5 5,-5l58,0c2.76,0 5,2.24 5,5Z" style="fill:#d3e1f4;"/><path d="M1012,583c0,2.76 -2.24,5 -5,5l-74,0c-2.76,0 -5,-2.24 -5,-5c0,-2.76 2.24,-5 5,-5l74,0c2.76,0 5,2.24 5,5Z" style="fill:#d3e1f4;"/><path d="M996,603c0,2.76 -2.24,5 -5,5l-58,0c-2.76,0 -5,-2.24 -5,-5c0,-2.76 2.24,-5 5,-5l58,0c2.76,0 5,2.24 5,5Z" style="fill:#d3e1f4;"/></g><path d="M658,538l24,0m-12,-12l0,24" style="fill:none;fill-rule:nonzero;stroke:#fff;stroke-width:8px;stroke-linejoin:miter;"/><circle cx="820" cy="531" r="8" style="fill:#fff;"/><path d="M805,554c4,-16 26,-16 30,0" style="fill:#fff;fill-rule:nonzero;"/><path d="M958,546c27,-24 38,-28 38,-28c0,0 -4,31 -31,39c-4,1 -8,-2 -7,-11Z" style="fill:#fff;fill-opacity:0.95;fill-rule:nonzero;"/><path d="M1105,309c63,-43 65,-46 95,-46" style="fill:none;fill-rule:nonzero;stroke:#6b9dff;stroke-width:8px;stroke-linejoin:miter;"/><path d="M1105,451c55.46,11.684 70,1.244 95,1.244" style="fill:none;fill-rule:nonzero;stroke:#9a70f4;stroke-width:8px;stroke-linejoin:miter;"/><path d="M1105,599c55,35 72,47 95,49" style="fill:none;fill-rule:nonzero;stroke:#f76f9d;stroke-width:8px;stroke-linejoin:miter;"/><g><path d="M1490,229l0,72c0,16.006 -12.994,29 -29,29l-220,0c-16.006,0 -29,-12.994 -29,-29l0,-72c0,-16.006 12.994,-29 29,-29l220,0c16.006,0 29,12.994 29,29Z" style="fill:#fff;stroke:#dce8fa;stroke-width:2px;stroke-linecap:butt;stroke-linejoin:miter;"/><path d="M1490,415l0,79c0,16.006 -12.994,29 -29,29l-220,0c-16.006,0 -29,-12.994 -29,-29l0,-79c0,-16.006 12.994,-29 29,-29l220,0c16.006,0 29,12.994 29,29Z" style="fill:#fff;stroke:#e3ddf8;stroke-width:2px;stroke-linecap:butt;stroke-linejoin:miter;"/><path d="M1490,608l0,79c0,16.006 -12.994,29 -29,29l-220,0c-16.006,0 -29,-12.994 -29,-29l0,-79c0,-16.006 12.994,-29 29,-29l220,0c16.006,0 29,12.994 29,29Z" style="fill:#fff;stroke:#fadee9;stroke-width:2px;stroke-linecap:butt;stroke-linejoin:miter;"/></g><g><circle cx="1288.415" cy="255.749" r="25.619" style="fill:none;stroke:#588bee;stroke-width:8.54px;stroke-linejoin:miter;"/><path d="M1307.629,274.963l24.907,24.907" style="fill:none;fill-rule:nonzero;stroke:#588bee;stroke-width:8.54px;stroke-linejoin:miter;"/></g><path d="M1452,249.5c0,4.691 -3.809,8.5 -8.5,8.5l-75,0c-4.691,0 -8.5,-3.809 -8.5,-8.5c0,-4.691 3.809,-8.5 8.5,-8.5l75,0c4.691,0 8.5,3.809 8.5,8.5Z" style="fill:#d5e2f4;"/><path d="M1432,284.5c0,4.139 -3.361,7.5 -7.5,7.5l-57,0c-4.139,0 -7.5,-3.361 -7.5,-7.5c0,-4.139 3.361,-7.5 7.5,-7.5l57,0c4.139,0 7.5,3.361 7.5,7.5Z" style="fill:#d5e2f4;"/><g><path d="M1295.981,422.475l110.038,0c15.994,0 28.789,12.795 28.789,28.789c0,15.994 -12.795,28.789 -28.789,28.789l-46.062,0l-26.87,20.472l6.398,-20.472l-43.503,0c-15.994,0 -28.789,-12.795 -28.789,-28.789c0,-15.994 12.795,-28.789 28.789,-28.789Z" style="fill:#f7f2ff;fill-rule:nonzero;stroke:#dccfff;stroke-width:1.92px;stroke-linecap:butt;stroke-linejoin:miter;"/><circle cx="1327.329" cy="451.904" r="5.118" style="fill:#9a70f4;"/><circle cx="1351" cy="451.904" r="5.118" style="fill:#9a70f4;"/><circle cx="1374.671" cy="451.904" r="5.118" style="fill:#9a70f4;"/></g><g><path d="M1262.796,600.08l50.558,0l27.639,27.639l0,59.322l-78.197,0l0,-86.96Z" style="fill:#ffe2ec;fill-rule:nonzero;stroke:#f7bfd3;stroke-width:2.02px;stroke-linecap:butt;stroke-linejoin:miter;"/><path d="M1313.355,600.08l0,27.639l27.639,0" style="fill:#ffd1df;fill-rule:nonzero;"/><path d="M1278.355,626.745c-3.505,0 -5.696,-2.629 -5.696,-6.572c0,-5.258 3.505,-8.763 8.763,-10.516l2.191,4.82c-2.191,0.876 -3.505,2.191 -3.943,3.943c3.943,0 6.572,2.629 6.572,6.572c0,3.505 -3.067,6.134 -7.887,6.134l0,-4.382Zm19.279,0c-3.505,0 -5.696,-2.629 -5.696,-6.572c0,-5.258 3.505,-8.763 8.763,-10.516l2.191,4.82c-2.191,0.876 -3.505,2.191 -3.943,3.943c3.943,0 6.572,2.629 6.572,6.572c0,3.505 -3.067,6.134 -7.887,6.134l0,-4.382Z" style="fill:#f05287;fill-rule:nonzero;"/><path d="M1330.207,652.324c0,1.674 -1.359,3.034 -3.034,3.034l-43.143,0c-1.674,0 -3.034,-1.359 -3.034,-3.034c0,-1.674 1.359,-3.034 3.034,-3.034l43.143,0c1.674,0 3.034,1.359 3.034,3.034Z" style="fill:#eab3c6;"/><path d="M1318.073,667.154c0,1.674 -1.359,3.034 -3.034,3.034l-31.009,0c-1.674,0 -3.034,-1.359 -3.034,-3.034c0,-1.674 1.359,-3.034 3.034,-3.034l31.009,0c1.674,0 3.034,1.359 3.034,3.034Z" style="fill:#eab3c6;"/></g><path d="M1464,635.5c0,4.139 -3.361,7.5 -7.5,7.5l-74,0c-4.139,0 -7.5,-3.361 -7.5,-7.5c0,-4.139 3.361,-7.5 7.5,-7.5l74,0c4.139,0 7.5,3.361 7.5,7.5Z" style="fill:#d5e2f4;"/><path d="M1441,672.5c0,4.139 -3.361,7.5 -7.5,7.5l-51,0c-4.139,0 -7.5,-3.361 -7.5,-7.5c0,-4.139 3.361,-7.5 7.5,-7.5l51,0c4.139,0 7.5,3.361 7.5,7.5Z" style="fill:#d5e2f4;"/><defs><linearGradient id="_Linear1" x1="0" y1="0" x2="1" y2="0" gradientUnits="userSpaceOnUse" gradientTransform="matrix(132,105,-105,132,183,200)"><stop offset="0" style="stop-color:#9ec8ff;stop-opacity:1"/><stop offset="1" style="stop-color:#4d86f7;stop-opacity:1"/></linearGradient><linearGradient id="_Linear2" x1="0" y1="0" x2="1" y2="0" gradientUnits="userSpaceOnUse" gradientTransform="matrix(132,105,-105,132,183,337)"><stop offset="0" style="stop-color:#9bf3de;stop-opacity:1"/><stop offset="1" style="stop-color:#31c6b2;stop-opacity:1"/></linearGradient><linearGradient id="_Linear3" x1="0" y1="0" x2="1" y2="0" gradientUnits="userSpaceOnUse" gradientTransform="matrix(132,105,-105,132,183,474)"><stop offset="0" style="stop-color:#c9aeff;stop-opacity:1"/><stop offset="1" style="stop-color:#8a61f2;stop-opacity:1"/></linearGradient><linearGradient id="_Linear4" x1="0" y1="0" x2="1" y2="0" gradientUnits="userSpaceOnUse" gradientTransform="matrix(132,105,-105,132,183,611)"><stop offset="0" style="stop-color:#ffd79a;stop-opacity:1"/><stop offset="1" style="stop-color:#ff9d3d;stop-opacity:1"/></linearGradient><linearGradient id="_Linear5" x1="0" y1="0" x2="1" y2="0" gradientUnits="userSpaceOnUse" gradientTransform="matrix(500,389,-389,500,570,251)"><stop offset="0" style="stop-color:#fff;stop-opacity:1"/><stop offset="1" style="stop-color:#eef6ff;stop-opacity:1"/></linearGradient><linearGradient id="_Linear6" x1="0" y1="0" x2="1" y2="0" gradientUnits="userSpaceOnUse" gradientTransform="matrix(94,94,-94,94,592.804554,332)"><stop offset="0" style="stop-color:#9ec8ff;stop-opacity:1"/><stop offset="1" style="stop-color:#4d86f7;stop-opacity:1"/></linearGradient><linearGradient id="_Linear7" x1="0" y1="0" x2="1" y2="0" gradientUnits="userSpaceOnUse" gradientTransform="matrix(117.085449,106.932167,-106.932167,117.085449,901.929339,356.067833)"><stop offset="0" style="stop-color:#ff94b8;stop-opacity:1"/><stop offset="1" style="stop-color:#f04f88;stop-opacity:1"/></linearGradient><linearGradient id="_Linear8" x1="0" y1="0" x2="1" y2="0" gradientUnits="userSpaceOnUse" gradientTransform="matrix(54,54,-54,54,643,511)"><stop offset="0" style="stop-color:#9bf3de;stop-opacity:1"/><stop offset="1" style="stop-color:#31c6b2;stop-opacity:1"/></linearGradient><linearGradient id="_Linear9" x1="0" y1="0" x2="1" y2="0" gradientUnits="userSpaceOnUse" gradientTransform="matrix(54,54,-54,54,793,511)"><stop offset="0" style="stop-color:#9ec8ff;stop-opacity:1"/><stop offset="1" style="stop-color:#4d86f7;stop-opacity:1"/></linearGradient><linearGradient id="_Linear10" x1="0" y1="0" x2="1" y2="0" gradientUnits="userSpaceOnUse" gradientTransform="matrix(54,54,-54,54,943,511)"><stop offset="0" style="stop-color:#c9aeff;stop-opacity:1"/><stop offset="1" style="stop-color:#8a61f2;stop-opacity:1"/></linearGradient></defs></svg>