<svg width="260" height="72" viewBox="0 0 260 72" fill="none" xmlns="http://www.w3.org/2000/svg" role="img" aria-labelledby="title desc">
  <title id="title">Kay &amp; Co.</title>
  <desc id="desc">Kay &amp; Co. wordmark with a geometric KC monogram.</desc>
  <path d="M67,21L67,51C67,59.831 59.831,67 51,67L21,67C12.169,67 5,59.831 5,51L5,21C5,12.169 12.169,5 21,5L51,5C59.831,5 67,12.169 67,21Z" fill="#050508"/>
  <path d="M66.25,21L66.25,51C66.25,59.417 59.417,66.25 51,66.25L21,66.25C12.583,66.25 5.75,59.417 5.75,51L5.75,21C5.75,12.583 12.583,5.75 21,5.75L51,5.75C59.417,5.75 66.25,12.583 66.25,21Z" fill="none" stroke="#2D6CFF" stroke-opacity=".55" stroke-width="1.5"/>
  <path d="M22 19v34" stroke="#F0F0F0" stroke-width="6" stroke-linecap="round"/>
  <path d="M44 19 27 36l17 17" stroke="#F0F0F0" stroke-width="6" stroke-linecap="round" stroke-linejoin="round"/>
  <path d="M53 24.5C49.75 27.437 47.892 31.619 47.892 36C47.892 40.381 49.75 44.563 53 47.5" transform="translate(-1.338457 -1.884033)" stroke="#FF5C1A" stroke-width="5" stroke-linecap="round"/>
  <circle cx="53.5" cy="53.5" r="3.5" transform="matrix(.896011 0 0 .896011 4.307124 5.063389)" fill="#2D6CFF"/>
  <text x="84" y="43" fill="#F0F0F0" font-family="Inter, Arial, sans-serif" font-size="25" font-weight="800" letter-spacing="-.7">Kay &amp; Co.</text>
  <text x="86" y="58" fill="#8A8A9A" font-family="Inter, Arial, sans-serif" font-size="8.5" font-weight="600" letter-spacing="1.9">SEO + GEO CONSULTANCY</text>
</svg>
