<?xml version="1.0" encoding="UTF-8" standalone="no"?>
<!DOCTYPE svg PUBLIC "-//W3C//DTD SVG 1.1//EN" "http://www.w3.org/Graphics/SVG/1.1/DTD/svg11.dtd">
<svg width="100%" height="100%" viewBox="0 0 72 72" version="1.1" xmlns="http://www.w3.org/2000/svg" xmlns:xlink="http://www.w3.org/1999/xlink" xml:space="preserve" xmlns:serif="http://www.serif.com/" style="fill-rule:evenodd;clip-rule:evenodd;">
    <path d="M67,21L67,51C67,59.831 59.831,67 51,67L21,67C12.169,67 5,59.831 5,51L5,21C5,12.169 12.169,5 21,5L51,5C59.831,5 67,12.169 67,21Z" style="fill:rgb(5,5,8);"/>
    <path d="M66.25,21L66.25,51C66.25,59.417 59.417,66.25 51,66.25L21,66.25C12.583,66.25 5.75,59.417 5.75,51L5.75,21C5.75,12.583 12.583,5.75 21,5.75L51,5.75C59.417,5.75 66.25,12.583 66.25,21Z" style="fill:none;stroke:rgb(45,108,255);stroke-opacity:0.55;stroke-width:1.5px;"/>
    <path d="M22,19L22,53" style="fill:none;fill-rule:nonzero;stroke:rgb(240,240,240);stroke-width:6px;stroke-linecap:round;"/>
    <path d="M44,19L27,36L44,53" style="fill:none;fill-rule:nonzero;stroke:rgb(240,240,240);stroke-width:6px;stroke-linecap:round;stroke-linejoin:round;"/>
    <g transform="matrix(1,0,0,1,-1.338457,-1.884033)">
        <path d="M53,24.5C49.75,27.437 47.892,31.619 47.892,36C47.892,40.381 49.75,44.563 53,47.5" style="fill:none;fill-rule:nonzero;stroke:rgb(255,92,26);stroke-width:5px;stroke-linecap:round;"/>
    </g>
    <g transform="matrix(0.896011,0,0,0.896011,4.307124,5.063389)">
        <circle cx="53.5" cy="53.5" r="3.5" style="fill:rgb(45,108,255);"/>
    </g>
</svg>
